{
  "accessors": [
    {
      "bufferView": 2,
      "componentType": 5126,
      "count": 590,
      "max": [
        0.9999997019767761,
        0.005881052929908037,
        0.9999993443489075
      ],
      "min": [
        -0.9999990463256836,
        -0.9851967692375183,
        -1.0
      ],
      "type": "VEC3"
    },
    {
      "bufferView": 2,
      "byteOffset": 7080,
      "componentType": 5126,
      "count": 590,
      "max": [
        0.9811382293701172,
        0.9279958605766296,
        0.9811382293701172
      ],
      "min": [
        -0.9811382293701172,
        -0.9470199942588806,
        -0.9811382293701172
      ],
      "type": "VEC3"
    },
    {
      "bufferView": 1,
      "componentType": 5126,
      "count": 590,
      "max": [
        1.0,
        0.875
      ],
      "min": [
        0.0,
        0.5
      ],
      "type": "VEC2"
    },
    {
      "bufferView": 0,
      "componentType": 5125,
      "count": 3444,
      "type": "SCALAR"
    },
    {
      "bufferView": 2,
      "byteOffset": 14160,
      "componentType": 5126,
      "count": 4225,
      "max": [
        1.409985899925232,
        0.2262822389602661,
        1.4360896348953247
      ],
      "min": [
        -1.4219883680343628,
        -0.010512434877455235,
        -1.4158592224121094
      ],
      "type": "VEC3"
    },
    {
      "bufferView": 2,
      "byteOffset": 64860,
      "componentType": 5126,
      "count": 4225,
      "max": [
        0.9343077540397644,
        1.0,
        0.9763410687446594
      ],
      "min": [
        -0.990486741065979,
        -0.9669986367225647,
        -0.9432309865951538
      ],
      "type": "VEC3"
    },
    {
      "bufferView": 1,
      "byteOffset": 4720,
      "componentType": 5126,
      "count": 4225,
      "max": [
        1.000000238418579,
        1.0
      ],
      "min": [
        0.0,
        -2.384185791015625e-07
      ],
      "type": "VEC2"
    },
    {
      "bufferView": 0,
      "byteOffset": 13776,
      "componentType": 5125,
      "count": 24576,
      "type": "SCALAR"
    },
    {
      "bufferView": 2,
      "byteOffset": 115560,
      "componentType": 5126,
      "count": 24,
      "max": [
        1.0,
        1.0,
        1.0
      ],
      "min": [
        -1.0,
        -1.0,
        -1.0
      ],
      "type": "VEC3"
    },
    {
      "bufferView": 2,
      "byteOffset": 115848,
      "componentType": 5126,
      "count": 24,
      "max": [
        0.9760833978652954,
        1.0,
        0.9760833978652954
      ],
      "min": [
        -0.9760833978652954,
        -1.0,
        -0.9760833978652954
      ],
      "type": "VEC3"
    },
    {
      "bufferView": 1,
      "byteOffset": 38520,
      "componentType": 5126,
      "count": 24,
      "max": [
        0.875,
        1.0
      ],
      "min": [
        0.125,
        0.0
      ],
      "type": "VEC2"
    },
    {
      "bufferView": 0,
      "byteOffset": 112080,
      "componentType": 5125,
      "count": 36,
      "type": "SCALAR"
    },
    {
      "bufferView": 2,
      "byteOffset": 116136,
      "componentType": 5126,
      "count": 24,
      "max": [
        1.0,
        1.0,
        1.0
      ],
      "min": [
        -1.0,
        -1.0,
        -1.0
      ],
      "type": "VEC3"
    },
    {
      "bufferView": 2,
      "byteOffset": 116424,
      "componentType": 5126,
      "count": 24,
      "max": [
        0.9760833978652954,
        1.0,
        0.9760833978652954
      ],
      "min": [
        -0.9760833978652954,
        -1.0,
        -0.9760833978652954
      ],
      "type": "VEC3"
    },
    {
      "bufferView": 1,
      "byteOffset": 38712,
      "componentType": 5126,
      "count": 24,
      "max": [
        0.875,
        1.0
      ],
      "min": [
        0.125,
        0.0
      ],
      "type": "VEC2"
    },
    {
      "bufferView": 0,
      "byteOffset": 112224,
      "componentType": 5125,
      "count": 36,
      "type": "SCALAR"
    }
  ],
  "asset": {
    "extras": {
      "author": "ElenaDePasion (https://sketchfab.com/ElenaDePasion)",
      "license": "CC-BY-4.0 (http://creativecommons.org/licenses/by/4.0/)",
      "source": "https://sketchfab.com/3d-models/food-bowl-low-quality-9fb729e22cfb4c489d0d2d50d76f9a89",
      "title": "Food Bowl Low Quality"
    },
    "generator": "Sketchfab-15.40.0",
    "version": "2.0"
  },
  "bufferViews": [
    {
      "buffer": 0,
      "byteLength": 112368,
      "name": "floatBufferViews",
      "target": 34963
    },
    {
      "buffer": 0,
      "byteLength": 38904,
      "byteOffset": 112368,
      "byteStride": 8,
      "name": "floatBufferViews",
      "target": 34962
    },
    {
      "buffer": 0,
      "byteLength": 116712,
      "byteOffset": 151272,
      "byteStride": 12,
      "name": "floatBufferViews",
      "target": 34962
    }
  ],
  "buffers": [
    {
      "byteLength": 267984,
      "uri": "scene.bin"
    }
  ],
  "extensionsUsed": [
    "KHR_materials_specular"
  ],
  "images": [
    {
      "uri": "textures/Material.001_baseColor.jpeg"
    }
  ],
  "materials": [
    {
      "doubleSided": true,
      "extensions": {
        "KHR_materials_specular": {
          "specularColorFactor": [
            1.0,
            1.0,
            1.0
          ],
          "specularFactor": 1.0
        }
      },
      "name": "Material.002",
      "pbrMetallicRoughness": {
        "baseColorFactor": [
          0.0290723,
          0.000808155,
          0.0129105,
          1.0
        ],
        "metallicFactor": 0.0,
        "roughnessFactor": 0.0826772
      }
    },
    {
      "doubleSided": true,
      "extensions": {
        "KHR_materials_specular": {
          "specularColorFactor": [
            1.0,
            1.0,
            1.0
          ],
          "specularFactor": 1.0
        }
      },
      "name": "Material.001",
      "pbrMetallicRoughness": {
        "baseColorTexture": {
          "index": 0
        },
        "metallicFactor": 0.0,
        "roughnessFactor": 0.255906
      }
    },
    {
      "doubleSided": true,
      "name": "Material.003",
      "pbrMetallicRoughness": {
        "baseColorFactor": [
          0.538224,
          0.494011,
          0.44928,
          1.0
        ],
        "metallicFactor": 0.984252,
        "roughnessFactor": 0.5
      }
    },
    {
      "doubleSided": true,
      "name": "Material.004",
      "pbrMetallicRoughness": {
        "baseColorFactor": [
          0.538224,
          0.494011,
          0.44928,
          1.0
        ],
        "metallicFactor": 0.984252,
        "roughnessFactor": 0.5
      }
    }
  ],
  "meshes": [
    {
      "name": "Object_0",
      "primitives": [
        {
          "attributes": {
            "NORMAL": 1,
            "POSITION": 0,
            "TEXCOORD_0": 2
          },
          "indices": 3,
          "material": 0,
          "mode": 4
        }
      ]
    },
    {
      "name": "Object_1",
      "primitives": [
        {
          "attributes": {
            "NORMAL": 5,
            "POSITION": 4,
            "TEXCOORD_0": 6
          },
          "indices": 7,
          "material": 1,
          "mode": 4
        }
      ]
    },
    {
      "name": "Object_2",
      "primitives": [
        {
          "attributes": {
            "NORMAL": 9,
            "POSITION": 8,
            "TEXCOORD_0": 10
          },
          "indices": 11,
          "material": 2,
          "mode": 4
        }
      ]
    },
    {
      "name": "Object_3",
      "primitives": [
        {
          "attributes": {
            "NORMAL": 13,
            "POSITION": 12,
            "TEXCOORD_0": 14
          },
          "indices": 15,
          "material": 3,
          "mode": 4
        }
      ]
    }
  ],
  "nodes": [
    {
      "children": [
        1
      ],
      "matrix": [
        1.0,
        0.0,
        0.0,
        0.0,
        0.0,
        2.220446049250313e-16,
        -1.0,
        0.0,
        0.0,
        1.0,
        2.220446049250313e-16,
        0.0,
        0.0,
        0.0,
        0.0,
        1.0
      ],
      "name": "Sketchfab_model"
    },
    {
      "children": [
        2
      ],
      "name": "root"
    },
    {
      "children": [
        3,
        5,
        7,
        9
      ],
      "matrix": [
        1.0,
        0.0,
        0.0,
        0.0,
        0.0,
        2.220446049250313e-16,
        1.0,
        0.0,
        0.0,
        -1.0,
        2.220446049250313e-16,
        0.0,
        0.0,
        0.0,
        0.0,
        1.0
      ],
      "name": "GLTF_SceneRootNode"
    },
    {
      "children": [
        4
      ],
      "matrix": [
        1.0,
        0.0,
        0.0,
        0.0,
        0.0,
        1.0,
        0.0,
        0.0,
        0.0,
        0.0,
        1.0,
        0.0,
        0.0,
        1.0115500688552856,
        0.0,
        1.0
      ],
      "name": "Sphere_0"
    },
    {
      "mesh": 0,
      "name": "Object_4"
    },
    {
      "children": [
        6
      ],
      "matrix": [
        0.6567644476890564,
        0.0,
        0.0,
        0.0,
        0.0,
        0.6567644476890564,
        0.0,
        0.0,
        0.0,
        0.0,
        0.6567644476890564,
        0.0,
        0.0,
        0.8579495549201965,
        0.0,
        1.0
      ],
      "name": "Plane_1"
    },
    {
      "mesh": 1,
      "name": "Object_6"
    },
    {
      "children": [
        8
      ],
      "matrix": [
        0.009142069192004956,
        -0.02696468938113072,
        -0.0,
        0.0,
        1.0190441812997122,
        0.3454952617281495,
        0.0,
        0.0,
        0.0,
        0.0,
        0.028472300618886948,
        0.0,
        0.8097394704818726,
        0.9973161220550537,
        -0.08189722895622253,
        1.0
      ],
      "name": "Cube_2"
    },
    {
      "mesh": 2,
      "name": "Object_8"
    },
    {
      "children": [
        10
      ],
      "matrix": [
        0.008816187802403484,
        -0.026964690345893726,
        0.002419134083734876,
        0.0,
        0.982719341254901,
        0.3454951541883479,
        0.2696549908184649,
        0.0,
        -0.007534214982696778,
        7.548787209937658e-10,
        0.027457376187953155,
        0.0,
        0.8097394704818726,
        0.9973161220550537,
        0.06747570633888245,
        1.0
      ],
      "name": "Cube.001_3"
    },
    {
      "mesh": 3,
      "name": "Object_10"
    }
  ],
  "samplers": [
    {
      "magFilter": 9729,
      "minFilter": 9987,
      "wrapS": 10497,
      "wrapT": 10497
    }
  ],
  "scene": 0,
  "scenes": [
    {
      "name": "Sketchfab_Scene",
      "nodes": [
        0
      ]
    }
  ],
  "textures": [
    {
      "sampler": 0,
      "source": 0
    }
  ]
}
